<svg width="50" height="50" viewBox="0 0 50 50" fill="none" xmlns="http://www.w3.org/2000/svg">
<rect x="1" y="1" width="48" height="48" rx="8" stroke="#F2F2F2" stroke-width="2"/>
<path d="M25.12 15.08L15.4 39.24C15.2933 39.5067 15.1467 39.7067 14.96 39.84C14.7733 39.9733 14.56 40.04 14.32 40.04C13.9467 40.04 13.6667 39.9467 13.48 39.76C13.2933 39.5467 13.1867 39.2933 13.16 39C13.1333 38.8667 13.1467 38.7067 13.2 38.52L23.76 12.68C23.8933 12.3867 24.0533 12.1867 24.24 12.08C24.4533 11.9467 24.6933 11.88 24.96 11.88C25.2267 11.88 25.4533 11.96 25.64 12.12C25.8533 12.2533 26.0133 12.44 26.12 12.68L36.64 38.4C36.6933 38.56 36.72 38.72 36.72 38.88C36.72 39.2533 36.6 39.5467 36.36 39.76C36.12 39.9467 35.84 40.04 35.52 40.04C35.2533 40.04 35.0133 39.9733 34.8 39.84C34.6133 39.68 34.4667 39.48 34.36 39.24L24.4 14.92L25.12 15.08ZM17.72 31.92L18.72 29.56H31.12L31.6 31.92H17.72Z" fill="#F2F2F2"/>
</svg>
