<svg width="77" height="77" viewBox="0 0 77 77" fill="none" xmlns="http://www.w3.org/2000/svg">
<path d="M29.0089 0.90006C26.1089 1.40006 21.8089 2.60006 19.5089 3.70006C15.2089 5.60006 6.8089 13.4001 4.4089 17.7001C-2.4911 30.1001 -0.991102 56.5001 6.8089 62.5001C7.7089 63.2001 8.1089 63.8001 7.7089 63.8001C6.3089 63.8001 14.5089 71.0001 17.9089 72.8001C29.2089 78.5001 52.4089 77.9001 61.2089 71.6001C65.2089 68.7001 70.9089 62.7001 72.5089 59.6001C78.0089 49.0001 78.2089 28.2001 72.9089 17.8001C71.1089 14.4001 63.9089 6.20006 63.9089 7.60006C63.9089 8.00006 63.2089 7.50006 62.5089 6.60006C60.5089 3.90006 55.0089 2.00006 45.8089 0.90006C36.5089 -0.29994 36.5089 -0.29994 29.0089 0.90006Z" fill="url(#paint0_radial_271_347)"/>
<defs>
<radialGradient id="paint0_radial_271_347" cx="0" cy="0" r="1" gradientUnits="userSpaceOnUse" gradientTransform="translate(38.381 38.3627) rotate(-90) scale(38.3626 38.381)">
<stop offset="0.520833" stop-color="#5E8B7E"/>
<stop offset="0.9998" stop-color="#092532" stop-opacity="0.690724"/>
<stop offset="0.9999" stop-color="#0A2633" stop-opacity="0.0104167"/>
<stop offset="1" stop-color="#092532" stop-opacity="0"/>
</radialGradient>
</defs>
</svg>
