<svg width="50" height="50" viewBox="0 0 50 50" fill="none" xmlns="http://www.w3.org/2000/svg">
<rect x="1" y="1" width="48" height="48" rx="8" stroke="#030303" stroke-width="2"/>
<path d="M36.64 38.4C36.6933 38.6133 36.72 38.7733 36.72 38.88C36.72 39.2267 36.6 39.5067 36.36 39.72C36.12 39.9333 35.84 40.04 35.52 40.04C35.2533 40.04 35.0133 39.9733 34.8 39.84C34.6133 39.68 34.4667 39.48 34.36 39.24L31.36 31.92H18.36L15.4 39.24C15.1867 39.7733 14.8267 40.04 14.32 40.04C13.9467 40.04 13.6667 39.9467 13.48 39.76C13.2933 39.5733 13.1867 39.32 13.16 39V38.88C13.16 38.72 13.1733 38.6 13.2 38.52L23.76 12.68C23.9733 12.1467 24.3733 11.88 24.96 11.88C25.2267 11.88 25.4533 11.96 25.64 12.12C25.8533 12.2533 26.0133 12.44 26.12 12.68L36.64 38.4ZM30.4 29.56L24.8 15.88L19.28 29.56H30.4Z" fill="#030303"/>
</svg>
